<?xml version="1.0" encoding="utf-8"?>
<!-- Generator: Adobe Illustrator 27.7.0, SVG Export Plug-In . SVG Version: 6.00 Build 0)  -->
<svg version="1.1" id="Layer_1" xmlns="http://www.w3.org/2000/svg" xmlns:xlink="http://www.w3.org/1999/xlink" x="0px" y="0px"
	 viewBox="0 0 32 32" style="enable-background:new 0 0 32 32;" xml:space="preserve">
<g>
	<path d="M22.8,1.5c1.7,0,3.2,0.9,4,2.4c1.1,2.2,0.3,4.9-1.9,6l-2.3,1.2c-0.5,0.3-0.8,0.8-0.8,1.4c0,0.6,0.4,1.1,0.9,1.3l1.9,0.8
		c1.5,0.7,2.6,2.2,2.7,3.9c0.1,1.7-0.9,3.4-2.4,4.2L11.3,30c-0.6,0.3-1.4,0.5-2.1,0.5c-2.5,0-4.5-2-4.5-4.5c0-1.7,0.9-3.2,2.4-4
		l2.3-1.2c0.5-0.3,0.8-0.8,0.8-1.4c0-0.6-0.4-1.1-0.9-1.3c-1.3-0.5-1.7-0.7-1.9-0.8c-1.6-0.7-2.6-2.2-2.6-3.9
		c-0.1-1.7,0.9-3.4,2.4-4.2l13.6-7.2C21.3,1.7,22.1,1.5,22.8,1.5 M12.8,21.8c0.2,0,0.5-0.1,0.7-0.2l8-4.2c0.5-0.3,0.8-0.8,0.8-1.3
		c0-0.6-0.3-1.1-0.8-1.3l-8-4.2c-0.2-0.1-0.5-0.2-0.7-0.2c-0.3,0-0.5,0.1-0.8,0.2c-0.5,0.3-0.7,0.8-0.7,1.3v8.5c0,0.5,0.3,1,0.7,1.3
		C12.3,21.7,12.5,21.8,12.8,21.8 M22.8,0c-0.9,0-1.9,0.2-2.8,0.7L6.4,7.9C4.3,9,3.1,11.2,3.2,13.5c0.1,2.3,1.5,4.3,3.6,5.2
		c0,0,1.9,0.8,1.9,0.8l-2.3,1.2c-1.9,1-3.2,3.1-3.2,5.3c0,3.3,2.7,6,6,6c1,0,1.9-0.2,2.8-0.7l13.6-7.2c2.1-1.1,3.3-3.3,3.2-5.6
		c-0.1-2.3-1.5-4.3-3.6-5.2h0l-1.9-0.8l2.3-1.2c2.9-1.5,4.1-5.1,2.5-8.1c0,0,0,0,0,0C27,1.2,24.9,0,22.8,0L22.8,0z M12.8,20.3v-8.5
		l8,4.2L12.8,20.3L12.8,20.3z"/>
</g>
</svg>
