<svg xmlns="http://www.w3.org/2000/svg" width="24" height="24" viewBox="0 0 24 24"><g fill="none" stroke="currentColor" stroke-linecap="round" stroke-linejoin="round" stroke-width="1.5"><path d="m8.492 11.265l-1.06 4.243l4.242-1.061l6.364-6.364L14.856 4.9zm13.259-6.894l1.06 1.06a1.5 1.5 0 0 1 0 2.122l-3.311 3.31m-1.462-2.78l3.713-3.712a1.5 1.5 0 0 0 0-2.121L20.69 1.189a1.5 1.5 0 0 0-2.121 0l-3.713 3.71"/><path d="M18.75 14.25v7.5a1.5 1.5 0 0 1-1.5 1.5h-15a1.5 1.5 0 0 1-1.5-1.5v-15a1.5 1.5 0 0 1 1.5-1.5h7.5"/></g></svg>
