<svg xmlns="http://www.w3.org/2000/svg" width="24" height="24" viewBox="0 0 24 24"><g fill="none" fill-rule="evenodd"><path d="m12.594 23.258l-.012.002l-.071.035l-.02.004l-.014-.004l-.071-.036q-.016-.004-.024.006l-.004.01l-.017.428l.005.02l.01.013l.104.074l.015.004l.012-.004l.104-.074l.012-.016l.004-.017l-.017-.427q-.004-.016-.016-.018m.264-.113l-.014.002l-.184.093l-.01.01l-.003.011l.018.43l.005.012l.008.008l.201.092q.019.005.029-.008l.004-.014l-.034-.614q-.005-.019-.02-.022m-.715.002a.02.02 0 0 0-.027.006l-.006.014l-.034.614q.001.018.017.024l.015-.002l.201-.093l.01-.008l.003-.011l.018-.43l-.003-.012l-.01-.01z"/><path fill="currentColor" d="M18 3a3 3 0 0 1 2.995 2.824L21 6v12a3 3 0 0 1-2.824 2.995L18 21H6a3 3 0 0 1-2.995-2.824L3 18V6a3 3 0 0 1 2.824-2.995L6 3zM8.5 14a1.5 1.5 0 1 0 0 3a1.5 1.5 0 0 0 0-3M8 10.5a1 1 0 1 0 0 2a3.5 3.5 0 0 1 3.5 3.5a1 1 0 1 0 2 0A5.5 5.5 0 0 0 8 10.5M8.5 7q-.285 0-.566.019a1 1 0 0 0 .132 1.995a6.5 6.5 0 0 1 6.92 6.92a1 1 0 1 0 1.995.132A8.5 8.5 0 0 0 8.5 7"/></g></svg>
