<svg xmlns="http://www.w3.org/2000/svg" width="24" height="24" viewBox="0 0 24 24"><path fill="currentColor" d="M12 8.75a3.25 3.25 0 1 0 0 6.5a3.25 3.25 0 0 0 0-6.5"/><path fill="currentColor" fill-rule="evenodd" d="M6.77 3.082a47.5 47.5 0 0 1 10.46 0c1.899.212 3.43 1.707 3.653 3.613a45.7 45.7 0 0 1 0 10.61c-.223 1.906-1.754 3.401-3.652 3.614a47.5 47.5 0 0 1-10.461 0c-1.899-.213-3.43-1.708-3.653-3.613a45.7 45.7 0 0 1 0-10.611C3.34 4.789 4.871 3.294 6.77 3.082M17 6a1 1 0 1 0 0 2a1 1 0 0 0 0-2m-9.75 6a4.75 4.75 0 1 1 9.5 0a4.75 4.75 0 0 1-9.5 0" clip-rule="evenodd"/></svg>
