<svg xmlns="http://www.w3.org/2000/svg" viewBox="0 0 210.7 162.8"><title>KoFi Icon</title><path d="M197.1 18.2C188.2 9.1 175.8 3.6 159.7 2 146.1.6 136.5.2 99.7.2 53.3.6 1.1-6 .4 51.7h0c-3.6 57.5 19.5 111.4 80.9 110.9 21.2.8 40.5-3.2 56.5-15.7 0 0 18.6-12.7 27.1-39.8 43-2.3 60.1-59.8 32.2-88.9zm-3.7 39c.1 22.8-21.2 36.3-42.1 33.6-8 31.2-18.9 52.5-62.3 54.8-24.3 1.1-48.4-5.3-60.3-28-9.6-17.5-11.4-36.4-11.4-65.7 0-19.1 7.5-29.8 26.4-32.5 13.4-2 31.2-2.3 55.9-2.3 51.3 2.3 92.5-8.5 93.8 40.1zm-42.1 10.4c0 2.7 2 4.8 5.7 4.8 11.6 0 18-6.6 18-17.5s-6.4-17.7-18-17.7c-3.6 0-5.7 2-5.7 4.8v25.6h0zM39.7 66.3c0 13.4 7.5 25 17 34.1 6.4 6.1 16.4 12.5 23.2 16.6 2 1.1 4.1 1.8 6.4 1.8 2.7 0 5-.7 6.8-1.8 6.8-4.1 16.8-10.5 23-16.6 9.8-9.1 17.3-20.7 17.3-34.1 0-14.6-10.9-27.5-26.6-27.5-9.3 0-15.7 4.8-20.5 11.4-4.3-6.7-10.9-11.4-20.2-11.4-15.9 0-26.4 12.9-26.4 27.5"/></svg>