<svg xmlns="http://www.w3.org/2000/svg" width="48" height="48" viewBox="0 0 48 48"><rect width="37" height="37" x="5.5" y="5.5" fill="none" stroke="currentColor" stroke-linecap="round" stroke-linejoin="round" rx="4" ry="4" stroke-width="1"/><path fill="none" stroke="currentColor" stroke-linecap="round" stroke-linejoin="round" d="M32.254 19.374v9.252m-5.781-7.776v7.776M24.95 20.85h3.047m-4.038 7.776h4.803m1.599-7.776h4.13c.49 0 .885.396.885.885v2.696" stroke-width="1"/><path fill="none" stroke="currentColor" stroke-linecap="round" stroke-linejoin="round" d="M29.815 24.43h7.194a.99.99 0 0 1 .99.991v2.214a.99.99 0 0 1-.99.99h-1.83m1.859-7.308l.962-.89m-16.316 8.199h-2.118m-2.378-6.655l.697 5.07m-7.202-5.07L10 27.3m3.922-7.926v7.892c0 .75-.609 1.36-1.36 1.36H12.2m9.484-9.252l-1.367 3.253h1.866l-1.367 3.252h1.865" stroke-width="1"/></svg>
