<svg xmlns="http://www.w3.org/2000/svg" viewBox="0 0 205.57 217.02"><title>Saweria Icon</title><path d="M102.55 145.72c-2.46 2.79-6.24 5.45-9.89 7.26 1.61 5.78 5.38 14.68 9.9 14.68h.1c4.88-.14 8.56-9.1 10.09-14.19-3.89-1.74-7.8-4.42-10.2-7.75zm-9.95 55.85c-.53 1.12-1.16 2.19-1.87 3.17-7.64 10.64-24.11 12.47-29.79 12.27-7.47-.25-19.93-5.6-22.96-16.31a18.7 18.7 0 0 1-.51-2.56c-.83-6.71 1.78-14.82 6.36-19.73 1.74-1.86 4.52-4.04 7.98-4.04.15 0 .31.01.46.02 3.04.17 5.28 1.04 6.65 2.6 1.78 2.04 1.6 4.74 1.6 4.75-.11 1.21.66 2.32 1.84 2.64s2.41-.26 2.92-1.37c.03-.07 3.24-6.88 8.24-6.33 4.51.49 4.67 9.3 4.67 9.38a2.5 2.5 0 0 0 1.89 2.42 2.49 2.49 0 0 0 2.81-1.23c1.41-2.62 4.78-1.08 5.44-.74 3.7 1.88 7.9 7.44 4.27 15.06zm-14.35-85.66c-4.99 9.91-15.03 15.54-24.35 12.92-5.19-1.46-9.41-5.26-11.88-10.7-1.5-3.28-2.26-6.92-2.26-10.67 0-2.62.37-5.3 1.12-7.94 3.16-11.24 12.33-18.85 21.74-18.85a17.28 17.28 0 0 1 4.66.64c1.81.51 3.48 1.3 4.99 2.33-.26-.03-.52-.05-.79-.05-6.01 0-10.89 8.12-10.89 18.13s4.88 18.13 10.89 18.13c2.56 0 4.92-1.47 6.77-3.94zm72.38 11.68c-5.17 1.46-10.74.42-15.67-2.92-3.14-2.12-5.79-5.01-7.77-8.42 1.82 2.26 4.07 3.6 6.52 3.6 6.01 0 10.89-8.12 10.89-18.13s-4.88-18.13-10.89-18.13c-1.63 0-3.18.6-4.57 1.68 2.21-2.39 4.97-4.16 8.17-5.06 5.17-1.46 10.74-.42 15.67 2.92 5.07 3.42 8.85 8.84 10.65 15.24 3.67 13.06-2.16 26.17-13 29.22z"/><path d="M154.99 64.53c12.17.25 25.19-11 31-23.49s5.7-42.26-12.94-41-14.74 23.51-17.68 39.08-13.66 16.09-13.66 16.09-38.15-13.92-77.93 0c0 0-10.73-.51-13.66-16.09S51.12 1.34 32.5.06 13.78 28.53 19.58 41.04s18.81 23.74 31 23.49c0 0-81.36 103-37.7 85.91 0 0-5.78 13.5-7.79 23.47-.82 3.96.5 8.07 3.49 10.8 5.35 4.83 15.29 12.46 23.88 13.6-.85-8.11 2.21-17.42 7.72-23.31 3.65-3.91 7.94-5.85 12.37-5.61 4.48.25 7.91 1.72 10.19 4.38.59.68 1.06 1.4 1.43 2.12 2.23-2.41 5.54-4.66 9.89-4.19 5.17.57 7.62 5.16 8.59 9.54 2.33-.84 5.15-.61 7.94.81 6.58 3.34 11.1 12.07 6.53 21.68h0c-.39.82-.82 1.62-1.29 2.38l15.08-.46a25.85 25.85 0 0 1-2.41-4.06c-4.57-9.59-.05-18.32 6.52-21.65 2.79-1.42 5.61-1.66 7.93-.83.98-4.38 3.42-8.97 8.59-9.54 4.35-.49 7.66 1.77 9.89 4.18.37-.72.84-1.44 1.43-2.12 2.29-2.65 5.71-4.13 10.19-4.38 4.76-.26 9.45 2.07 13.22 6.56 5.5 6.56 8.14 16.51 6.55 24.49 8.57-1.17 18.77-8.77 24.14-13.59 3-2.72 4.34-6.83 3.53-10.8-2-10-7.79-23.47-7.79-23.47 43.66 17.11-37.7-85.91-37.7-85.91zm-30.09-2.92c8.3-1 17.89 7.2 18.95 8.13 1.04.92 1.14 2.5.23 3.53a2.52 2.52 0 0 1-1.88.85 2.51 2.51 0 0 1-1.65-.62c-2.44-2.14-9.89-7.55-15.05-6.93-1.38.16-2.62-.81-2.78-2.18-.17-1.37.81-2.62 2.18-2.78zm-17.29 15.33a2.48 2.48 0 0 1 2.75-2.21c1.37.15 2.35 1.37 2.22 2.73-.01.11-.26 3.8 2.61 9.43.62 1.23.13 2.73-1.1 3.36-.36.18-.75.27-1.13.27-.91 0-1.79-.5-2.23-1.37-3.57-7.02-3.18-11.7-3.12-12.21zm-7.42-.28a2.5 2.5 0 1 1 5 0v11.93a2.5 2.5 0 1 1-5 0V76.66zm-9.98 10.23c2.9-5.7 2.62-9.4 2.61-9.43-.12-1.37.88-2.59 2.25-2.72a2.47 2.47 0 0 1 2.72 2.2c.06.51.45 5.19-3.12 12.21-.44.87-1.32 1.37-2.23 1.37-.38 0-.77-.09-1.13-.27-1.23-.63-1.72-2.13-1.1-3.36zM56.93 71.2c1.07-.93 10.67-9.13 18.95-8.13 1.37.16 2.35 1.41 2.18 2.78-.16 1.37-1.41 2.34-2.78 2.18-5.18-.62-12.62 4.79-15.05 6.93a2.51 2.51 0 0 1-1.65.62 2.52 2.52 0 0 1-1.88-.85c-.91-1.03-.81-2.61.23-3.53zm-33.01 99.21a3.99 3.99 0 0 1-1.77-.41c-1.98-.98-2.79-3.38-1.82-5.36l4.85-9.83c.98-1.98 3.38-2.8 5.36-1.82s2.79 3.38 1.82 5.36l-4.85 9.83a4.01 4.01 0 0 1-3.59 2.23zm19.66-10.06l-4.85 9.83a4.01 4.01 0 0 1-3.59 2.23 3.99 3.99 0 0 1-1.77-.41c-1.98-.98-2.79-3.38-1.82-5.36l4.85-9.83c.98-1.98 3.38-2.8 5.36-1.82s2.79 3.38 1.82 5.36zm14.95-25.88c-1.99 0-4-.27-5.98-.83-6.63-1.87-11.99-6.64-15.08-13.44-3.03-6.65-3.53-14.48-1.4-22.04C40.5 82.41 55.11 72.7 68.64 76.5c13.52 3.81 20.91 19.73 16.48 35.48-3.79 13.44-14.98 22.49-26.59 22.49zm75.89 9.95a7.41 7.41 0 0 1-1.5.14c-.7 0-1.42-.09-2.14-.23-.9 4.15-3.26 11.1-9.07 11.32h-.36c-1.13 0-2.45-.18-3.87-.53-1.63 5.48-6.15 17.29-14.67 17.54h-.26c-8.47 0-12.93-12.14-14.56-17.84-1.07.3-2.05.47-2.88.48h-.09c-5.1 0-8.13-6.12-9.56-10.1-1.68.62-3.02.73-3.74.73-.25 0-.42 0-.51-.02-1.37-.13-2.38-1.36-2.24-2.73.13-1.36 1.33-2.37 2.68-2.25.15 0 1.71.03 3.8-1.29.01 0 .02-.01.02-.01.93-.59 1.96-1.44 3.02-2.68.9-1.05 2.48-1.18 3.53-.28a2.5 2.5 0 0 1 .28 3.52 19.78 19.78 0 0 1-2.44 2.42c1.27 3.91 3.48 7.69 5.17 7.69h.01c.96-.01 2.15-.33 3.44-.86.18-.11.39-.19.61-.25 3.46-1.53 7.47-4.35 9.62-6.62-4.88-1.31-8.28-4.79-8.28-8.98a7.49 7.49 0 0 1 .09-1.17l-.75-.25c-4.52-1.72-7.4-4.31-7.4-7.2 0-5.18 9.25-9.38 20.66-9.38s20.66 4.2 20.66 9.38c0 3.05-3.2 5.76-8.15 7.47a7.33 7.33 0 0 1 .09 1.15c0 4.41-3.77 8.04-9.07 9.16 2.01 2.87 5.98 5.42 9.66 6.81a.22.22 0 0 1 .08.01c.21.05.41.13.6.23 1.71.58 3.32.89 4.62.85 2.2-.08 3.8-4.52 4.48-7.94-1.8-.84-3.22-1.71-3.73-2.04-1.16-.75-1.49-2.29-.75-3.45.75-1.16 2.3-1.5 3.46-.75 1.21.78 2.91 1.67 4.55 2.3.01 0 .02.01.03.01 1.5.58 2.94.93 3.87.74 1.36-.27 2.67.6 2.95 1.96.27 1.35-.61 2.67-1.96 2.94zm17.56-12.03c-1.98.56-4 .84-6.03.84-4.72 0-9.47-1.51-13.79-4.43-6.04-4.08-10.53-10.49-12.65-18.02-4.42-15.71 2.96-31.58 16.45-35.37 1.98-.56 4.01-.83 6.04-.83 4.72 0 9.46 1.5 13.78 4.42 6.04 4.08 10.53 10.48 12.65 18.02 4.42 15.71-2.96 31.58-16.45 35.37zm19.65 40.94a3.99 3.99 0 0 1-1.77.41 4.01 4.01 0 0 1-3.59-2.23l-7.15-14.49c-.97-1.98-.16-4.38 1.82-5.36 1.98-.97 4.38-.16 5.36 1.82l7.15 14.49c.97 1.98.16 4.38-1.82 5.36zm12.14-2.76a3.99 3.99 0 0 1-1.77.41 4.01 4.01 0 0 1-3.59-2.23l-7.15-14.49c-.97-1.98-.16-4.38 1.82-5.36s4.38-.16 5.36 1.82l7.15 14.49c.97 1.98.16 4.38-1.82 5.36zm-72.14-37.07v.09c0 2.55-2.84 4.75-6.55 5.36a12.51 12.51 0 0 1-2.05.17c-.88 0-1.74-.09-2.55-.26-3.46-.72-6.05-2.84-6.05-5.27v-.1c.09-2.96 3.99-5.43 8.6-5.43s8.52 2.48 8.6 5.44zm56.16 64.38h0l-.17.68c-3 10.71-15.47 16.06-22.95 16.31-7.62.28-21.56-2.44-28.76-10.94-1.16-1.36-2.13-2.87-2.9-4.49-3.63-7.6.56-13.17 4.27-15.05.37-.19 1.6-.76 2.85-.76.98 0 1.97.35 2.58 1.48.55 1.01 1.7 1.52 2.81 1.23a2.5 2.5 0 0 0 1.89-2.42c0-.09.2-8.89 4.68-9.39 4.99-.55 8.18 6.28 8.21 6.34a2.49 2.49 0 0 0 2.9 1.38c1.17-.3 1.96-1.41 1.87-2.62 0-.03-.18-2.74 1.61-4.78 1.36-1.56 3.6-2.43 6.64-2.6 4.02-.23 7.17 2.47 9.11 4.78 4.64 5.53 6.9 14.3 5.36 20.85z"/></svg>