<svg xmlns="http://www.w3.org/2000/svg" width="24" height="24" xmlns:v="https://vecta.io/nano"><defs><mask id="A"><path fill="#fff" d="M0 0h24v24H0z"/><path d="M9.5 17c.413.462 1 1 2.5 1s2.5-.897 2.5-2-1-1.5-2.5-2-2-1.47-2-2c0-1.104 1-2 2-2s1.5 0 2.5 1" fill="none" stroke="#000" stroke-width="2" stroke-linecap="round" stroke-linejoin="round"/></mask></defs><path d="M8.5 7c0-1.653 1.5-4 3.5-4s3.5 2.347 3.5 4" fill="none" stroke="#000" stroke-width="2" stroke-linecap="round"/><path d="m4 7l.867 12.143a2 2 0 0 0 2 1.857h10.276a2 2 0 0 0 2-1.857L20.01 7z" mask="url(#A)"/></svg>
