<svg xmlns="http://www.w3.org/2000/svg" viewBox="0 0 274.4 237.8"><title>Teleslider Icon</title><path d="M256.1 26.2v14c-1.7-.3-3.4-.5-5.2-.5H23.5c-1.8 0-3.5.2-5.2.5v-14C18.3 11.7 30 0 44.5 0h185.4c14.5 0 26.2 11.7 26.2 26.2h0zM250.9 198c1.8 0 3.5-.2 5.2-.5v14c0 14.5-11.7 26.2-26.2 26.2H44.5c-14.5 0-26.2-11.7-26.2-26.2v-14c1.7.3 3.4.5 5.2.5h227.4zm-2.4-145.4H25.9A25.91 25.91 0 0 0 0 78.5v80.8a25.91 25.91 0 0 0 25.9 25.9h222.6a25.91 25.91 0 0 0 25.9-25.9V78.5a25.91 25.91 0 0 0-25.9-25.9zm-28.1 81.2H52.7c-8.3 0-14.9-6.7-14.9-14.9 0-8.3 6.7-14.9 14.9-14.9h167.7c8.3 0 14.9 6.7 14.9 14.9.1 8.3-6.6 14.9-14.9 14.9z"/></svg>