<svg xmlns="http://www.w3.org/2000/svg" width="24" height="24" viewBox="0 0 24 24"><g fill="none" fill-rule="evenodd"><path d="m12.594 23.258l-.012.002l-.071.035l-.02.004l-.014-.004l-.071-.036q-.016-.004-.024.006l-.004.01l-.017.428l.005.02l.01.013l.104.074l.015.004l.012-.004l.104-.074l.012-.016l.004-.017l-.017-.427q-.004-.016-.016-.018m.264-.113l-.014.002l-.184.093l-.01.01l-.003.011l.018.43l.005.012l.008.008l.201.092q.019.005.029-.008l.004-.014l-.034-.614q-.005-.019-.02-.022m-.715.002a.02.02 0 0 0-.027.006l-.006.014l-.034.614q.001.018.017.024l.015-.002l.201-.093l.01-.008l.003-.011l.018-.43l-.003-.012l-.01-.01z"/><path fill="currentColor" d="M5.45 4.623C6.997 2.974 9.24 2 12.017 2c4.565 0 7.592 2.631 8.55 6.277a1 1 0 0 1-1.935.508C17.905 6.022 15.676 4 12.016 4c-2.286 0-3.98.789-5.106 1.99c-1.136 1.212-1.769 2.923-1.769 4.885v2.25c0 1.962.633 3.673 1.769 4.884C8.036 19.212 9.73 20 12.016 20c1.655 0 2.968-.384 3.976-1.005c1.015-.625 1.62-1.454 1.79-2.405c.195-1.096-.045-1.848-.458-2.391a3.2 3.2 0 0 0-.814-.741c-.135.749-.376 1.456-.74 2.01c-1.342 2.039-3.908 2.214-5.6 1.539c-.916-.365-1.701-1.364-1.945-2.435a3 3 0 0 1 .141-1.843c.265-.636.756-1.178 1.455-1.59c.692-.409 1.72-.597 2.739-.625c.614-.017 1.28.024 1.95.133c-.14-.65-.377-1.135-.644-1.384c-.484-.45-1.286-.767-2.09-.762c-.777.006-1.436.305-1.83.935a1 1 0 1 1-1.696-1.06c.837-1.338 2.216-1.865 3.513-1.875c1.27-.009 2.578.472 3.466 1.298c.898.836 1.284 2.207 1.384 3.454c.874.381 1.7.94 2.305 1.737c.781 1.03 1.117 2.358.833 3.951c-.29 1.624-1.315 2.898-2.71 3.757C15.673 21.54 13.985 22 12.016 22c-2.776 0-5.02-.974-6.565-2.623c-1.536-1.638-2.31-3.864-2.31-6.252v-2.25c0-2.388.774-4.614 2.31-6.252ZM14.6 12.7a8.4 8.4 0 0 0-1.986-.186c-.891.024-1.516.193-1.777.347c-.384.227-.55.458-.624.637a1.02 1.02 0 0 0-.038.63c.122.536.525.938.736 1.021c1.126.45 2.535.212 3.188-.78c.235-.358.422-.96.5-1.669Z"/></g></svg>
