<svg xmlns="http://www.w3.org/2000/svg" width="640" height="640" viewBox="0 0 640 640"><path fill="currentColor" d="M544.5 273.9c-44 .1-87-13.6-122.8-39.2v178.7c0 33.1-10.1 65.4-29 92.6s-45.6 48-76.6 59.6s-64.8 13.5-96.9 5.3s-60.9-25.9-82.7-50.8s-35.3-56-39-88.9s2.9-66.1 18.6-95.2s40-52.7 69.6-67.7s62.9-20.5 95.7-16v89.9c-15-4.7-31.1-4.6-46 .4s-27.9 14.6-37 27.3s-14 28.1-13.9 43.9s5.2 31 14.5 43.7s22.4 22.1 37.4 26.9s31.1 4.8 46-.1s28-14.4 37.2-27.1s14.2-28.1 14.2-43.8V64h88c-.1 7.4.6 14.9 1.9 22.2c3.1 16.3 9.4 31.9 18.7 45.7s21.3 25.6 35.2 34.6c19.9 13.1 43.2 20.1 67 20.1V274z"/></svg>
