<svg xmlns="http://www.w3.org/2000/svg" width="32" height="32" viewBox="0 0 24 24"><g fill="none" stroke="currentColor" stroke-linecap="round" stroke-linejoin="round" stroke-width="1.5" color="currentColor"><path d="M2.5 12c0-4.478 0-6.718 1.391-8.109S7.521 2.5 12.001 2.5c4.478 0 6.717 0 8.108 1.391S21.5 7.521 21.5 12c0 4.478 0 6.718-1.391 8.109S16.479 21.5 12 21.5c-4.478 0-6.717 0-8.109-1.391c-1.39-1.392-1.39-3.63-1.39-8.109"/><path d="m7 17l4.194-4.193M17 7l-4.193 4.194m0 0L9.777 7H7l4.194 5.807m1.613-1.614L17 17h-2.778l-3.028-4.193"/></g></svg>