<svg
	id="Layer_2"
	data-name="Layer 2"
	xmlns="http://www.w3.org/2000/svg"
	viewBox="0 0 691.12 120"
>
	<title>Futami Logo</title>
	<defs>
		<style>
			.cls-1 {
				fill: currentColor;
			}
		</style>
	</defs>
	<g id="Layer_1-2" data-name="Layer 1">
		<g>
			<path
				class="cls-1"
				d="m52.35,48.9c-7.14,5-9.97,13.28-6.31,18.5,3.65,5.22,12.4,5.39,19.54.4,7.14-5,9.97-13.28,6.31-18.5-3.65-5.22-12.4-5.39-19.54-.4Z"
			></path>
			<path
				class="cls-1"
				d="m11.06,93.66c-7.82-12.34-5.43-29.33,2.79-44.89.18-.34.7-.15.61.23-2.54,11.03-2.18,22.13,4.15,31.31,14.62,21.14,49.08,19.69,68.04,5.71,0,0,16.31-10.2,23.49-29.6,0,0,2.6-6.81,2.7-13.93.04-2.65-.31-5.2-.31-5.2-.16-1.15-.34-2-.39-2.25-.27-1.24-.56-2.17-.83-3.02-.3-.96-.63-1.87-.71-2.08-.06-.17-.13-.34-.19-.5,0-.02-.02-.04-.02-.05,0-.04.01-.06.05-.07.01,0,.03.01.05.02C100.2,11.79,81.14,0,59.32,0,26.56,0,0,26.56,0,59.32c0,13.63,4.61,26.18,12.34,36.2-.44-.6-.87-1.22-1.27-1.86Zm66.91-11.71c-1.09-.39-1.25-2.41-1.06-6.02.05-.98-1.07-1.54-1.83-.91-.92.77-1.88,1.5-2.89,2.21-14.28,10-31.78,9.64-39.08-.79-7.31-10.43-1.65-27,12.63-37,10.79-7.56,23.42-9.2,32.1-5.04h0s0,0,0,0c2.14,1.02,4.04,2.4,5.61,4.12,8.06,8.11,7.4,19.96,7.33,20.93-.38,5.24-2.18,8.99-3.37,11.4-2.21,4.49-7.08,11.93-9.43,11.1ZM17.19,47.3c.6-2.55,1.28-4.35,1.83-5.61,1.19-2.78,2.52-4.78,3.2-5.76,1.9-2.71,3.69-4.32,6.8-7.09.51-.45,3.32-3.07,6.33-5.11,8.48-5.78,17.56-9.72,26.47-11.84,7.44-1.75,15.52-2.4,23.25-1.26,5.07.77,12.31,2.77,17.93,8.6,4.83,5.02,6.43,10.74,7,12.88,1.41,5.35.99,9.69.72,12.27-.68,6.51-2.86,11.13-4.6,14.76-1.2,2.49-5.38,10.72-14.3,18.62-2.76,2.45-7.73,6.41-8.39,5.79-.02-.02-.04-.04-.05-.06h0c-.56-1.46,13.71-13.32,16.57-30.32,1.16-6.89-.09-11.47-1.1-14.06,0,0-1.83-4.74-5.67-8.57-10.04-10.06-27.43-7.57-29.32-7.27-7.4,1.41-15.03,4.53-22.13,9.35-14.29,9.73-24.64,30.74-21.16,45.5.11.47-.53.71-.75.28-.95-1.88-1.27-2.83-2.18-4.71-2.01-4.14-3.06-15.35-.45-26.37Z"
			></path>
			<path
				class="cls-1"
				d="m110.82,29.89c.28.53.6,1.2.93,2,8.11,19.52-2.92,46.43-27.09,63.34-25.14,17.59-56.13,19.17-70.84,2.15,10.88,13,27.22,21.27,45.5,21.27,32.76,0,59.32-26.56,59.32-59.32,0-10.72-2.86-20.76-7.83-29.43Z"
			></path>
			<path
				class="cls-1"
				d="m12.6,95.86c.38.48.75.96,1.14,1.43-.39-.46-.77-.94-1.14-1.43Z"
			></path>
		</g>
	</g>
	<g id="Layer_3" data-name="Layer 3">
		<g>
			<path
				class="cls-1"
				d="m210.89,0v23.15h-48.34v25.01h36.17v22.48h-36.17v48h-28.9V0h77.24Z"
			></path>
			<path
				class="cls-1"
				d="m312.86,24.29v94.31h-28.9v-12.85c-2.93,4.17-6.9,7.52-11.92,10.06-5.01,2.54-10.56,3.8-16.65,3.8-7.21,0-13.58-1.61-19.1-4.82-5.52-3.21-9.8-7.86-12.85-13.94-3.04-6.08-4.56-13.24-4.56-21.46V24.29h28.73v51.21c0,6.31,1.63,11.21,4.9,14.7,3.27,3.49,7.66,5.24,13.18,5.24s10.08-1.75,13.35-5.24c3.27-3.49,4.9-8.39,4.9-14.7V24.29h28.9Z"
			></path>
			<path
				class="cls-1"
				d="m380.35,94.14v24.51h-14.7c-10.48,0-18.65-2.56-24.51-7.69-5.86-5.13-8.79-13.49-8.79-25.1v-37.52h-11.49v-24h11.49V1.35h28.9v22.99h18.93v24h-18.93v37.86c0,2.82.68,4.85,2.03,6.08,1.35,1.24,3.61,1.86,6.76,1.86h10.31Z"
			></path>
			<path
				class="cls-1"
				d="m393.84,45.8c3.66-7.32,8.65-12.96,14.96-16.9,6.31-3.94,13.35-5.92,21.13-5.92,6.65,0,12.48,1.35,17.49,4.06,5.01,2.7,8.87,6.25,11.58,10.65v-13.35h28.9v94.31h-28.9v-13.35c-2.82,4.39-6.73,7.94-11.75,10.65-5.01,2.7-10.85,4.06-17.49,4.06-7.66,0-14.65-2-20.96-6-6.31-4-11.3-9.69-14.96-17.07-3.66-7.38-5.49-15.91-5.49-25.61s1.83-18.19,5.49-25.52Zm59.15,8.62c-4-4.17-8.87-6.25-14.62-6.25s-10.62,2.06-14.62,6.17c-4,4.11-6,9.78-6,16.99s2,12.93,6,17.15c4,4.23,8.87,6.34,14.62,6.34s10.62-2.08,14.62-6.25c4-4.17,6-9.86,6-17.07s-2-12.9-6-17.07Z"
			></path>
			<path
				class="cls-1"
				d="m644.21,33.97c6.93,7.1,10.39,16.96,10.39,29.58v55.1h-28.73v-51.21c0-6.08-1.61-10.79-4.82-14.11-3.21-3.32-7.63-4.99-13.27-4.99s-10.06,1.66-13.27,4.99c-3.21,3.33-4.82,8.03-4.82,14.11v51.21h-28.73v-51.21c0-6.08-1.61-10.79-4.82-14.11-3.21-3.32-7.63-4.99-13.27-4.99s-10.06,1.66-13.27,4.99c-3.21,3.33-4.82,8.03-4.82,14.11v51.21h-28.9V24.34h28.9v11.83c2.93-3.94,6.76-7.07,11.49-9.38,4.73-2.31,10.08-3.46,16.06-3.46,7.1,0,13.44,1.52,19.01,4.56,5.58,3.04,9.94,7.38,13.1,13.01,3.27-5.18,7.72-9.41,13.35-12.68,5.63-3.27,11.77-4.9,18.42-4.9,11.72,0,21.04,3.55,27.97,10.65Z"
			></path>
			<g>
				<polygon
					class="cls-1"
					points="662.61 118.65 691.12 118.65 691.12 26.19 662.61 37.75 662.61 118.65"
				></polygon>
				<polygon
					class="cls-1"
					points="691.12 18.25 691.12 2.33 662.61 2.33 662.61 26.19 691.12 18.25"
				></polygon>
			</g>
		</g>
	</g>
</svg>
