<?xml version="1.0" encoding="UTF-8"?>
<svg id="Layer_2" data-name="Layer 2" xmlns="http://www.w3.org/2000/svg" viewBox="0 0 411.01 118.65">
  <defs>
    <style>
      .cls-1 {
        fill: currentColor;
      }
    </style>
    <title>Logo Japan</title>
  </defs>
  <g id="Layer_1-2" data-name="Layer 1">
    <g>
      <path class="cls-1" d="m52.35,48.9c-7.14,5-9.97,13.28-6.31,18.5,3.65,5.22,12.4,5.39,19.54.4,7.14-5,9.97-13.28,6.31-18.5-3.65-5.22-12.4-5.39-19.54-.4Z"/>
      <path class="cls-1" d="m11.06,93.66c-7.82-12.34-5.43-29.33,2.79-44.89.18-.34.7-.15.61.23-2.54,11.03-2.18,22.13,4.15,31.31,14.62,21.14,49.08,19.69,68.04,5.71,0,0,16.31-10.2,23.49-29.6,0,0,2.6-6.81,2.7-13.93.04-2.65-.31-5.2-.31-5.2-.16-1.15-.34-2-.39-2.25-.27-1.24-.56-2.17-.83-3.02-.3-.96-.63-1.87-.71-2.08-.06-.17-.13-.34-.19-.5,0-.02-.02-.04-.02-.05,0-.04.01-.06.05-.07.01,0,.03.01.05.02C100.2,11.79,81.14,0,59.32,0,26.56,0,0,26.56,0,59.32c0,13.63,4.61,26.18,12.34,36.2-.44-.6-.87-1.22-1.27-1.86Zm66.91-11.71c-1.09-.39-1.25-2.41-1.06-6.02.05-.98-1.07-1.54-1.83-.91-.92.77-1.88,1.5-2.89,2.21-14.28,10-31.78,9.64-39.08-.79-7.31-10.43-1.65-27,12.63-37,10.79-7.56,23.42-9.2,32.1-5.04h0s0,0,0,0c2.14,1.02,4.04,2.4,5.61,4.12,8.06,8.11,7.4,19.96,7.33,20.93-.38,5.24-2.18,8.99-3.37,11.4-2.21,4.49-7.08,11.93-9.43,11.1ZM17.19,47.3c.6-2.55,1.28-4.35,1.83-5.61,1.19-2.78,2.52-4.78,3.2-5.76,1.9-2.71,3.69-4.32,6.8-7.09.51-.45,3.32-3.07,6.33-5.11,8.48-5.78,17.56-9.72,26.47-11.84,7.44-1.75,15.52-2.4,23.25-1.26,5.07.77,12.31,2.77,17.93,8.6,4.83,5.02,6.43,10.74,7,12.88,1.41,5.35.99,9.69.72,12.27-.68,6.51-2.86,11.13-4.6,14.76-1.2,2.49-5.38,10.72-14.3,18.62-2.76,2.45-7.73,6.41-8.39,5.79-.02-.02-.04-.04-.05-.06h0c-.56-1.46,13.71-13.32,16.57-30.32,1.16-6.89-.09-11.47-1.1-14.06,0,0-1.83-4.74-5.67-8.57-10.04-10.06-27.43-7.57-29.32-7.27-7.4,1.41-15.03,4.53-22.13,9.35-14.29,9.73-24.64,30.74-21.16,45.5.11.47-.53.71-.75.28-.95-1.88-1.27-2.83-2.18-4.71-2.01-4.14-3.06-15.35-.45-26.37Z"/>
      <path class="cls-1" d="m110.82,29.89c.28.53.6,1.2.93,2,8.11,19.52-2.92,46.43-27.09,63.34-25.14,17.59-56.13,19.17-70.84,2.15,10.88,13,27.22,21.27,45.5,21.27,32.76,0,59.32-26.56,59.32-59.32,0-10.72-2.86-20.76-7.83-29.43Z"/>
      <path class="cls-1" d="m12.6,95.86c.38.48.75.96,1.14,1.43-.39-.46-.77-.94-1.14-1.43Z"/>
    </g>
  </g>
  <g id="Layer_3" data-name="Layer 3">
    <rect class="cls-1" x="304.61" y="4.79" width="22.5" height="11.5" rx="5.75" ry="5.75" transform="translate(99.96 -220.26) rotate(45)"/>
    <rect class="cls-1" x="292.65" y="28.6" width="37.02" height="11.5" rx="5.75" ry="5.75" transform="translate(115.43 -209.96) rotate(45)"/>
    <rect class="cls-1" x="297.67" y="71.81" width="42.92" height="11.5" rx="5.75" ry="5.75" transform="translate(501.16 -195.8) rotate(110)"/>
    <path class="cls-1" d="m391.97,85.27v16.7c0,2.86-2.32,5.17-5.17,5.17h-16.18c-3.05,0-5.56,2.41-5.68,5.46h0c-.13,3.22,2.45,5.9,5.68,5.9h19.03s9.55,0,9.55,0c3.14,0,5.68-2.54,5.68-5.68v-27.56h-12.91Z"/>
    <rect class="cls-1" x="319.12" y="11.55" width="42.24" height="11.5" rx="5.75" ry="5.75" transform="translate(593.07 -211.06) rotate(135)"/>
    <path class="cls-1" d="m343.16,11.55h67.85v11.5h-67.85c-3.15,0-5.71-2.56-5.71-5.71v-.08c0-3.15,2.56-5.71,5.71-5.71Z" transform="translate(748.46 34.6) rotate(180)"/>
    <path class="cls-1" d="m397.31,30.75h-52.29c-4.18,0-7.57,3.39-7.57,7.57v52.29c0,4.18,3.39,7.57,7.57,7.57h59.86v-59.86c0-4.18-3.39-7.57-7.57-7.57Zm-5.34,41.44v11.8c0,.7-.57,1.27-1.27,1.27h-11.8c-.7,0-1.27-.57-1.27-1.27v-11.8c0-.7.57-1.27,1.27-1.27h11.8c.7,0,1.27.57,1.27,1.27Zm-27.26,0v11.8c0,.7-.57,1.27-1.27,1.27h-11.8c-.7,0-1.27-.57-1.27-1.27v-11.8c0-.7.57-1.27,1.27-1.27h11.8c.7,0,1.27.57,1.27,1.27Zm-14.34-15.46v-11.69c0-.7.57-1.27,1.27-1.27h11.8c.7,0,1.27.57,1.27,1.27v11.69c0,.7-.57,1.27-1.27,1.27h-11.8c-.7,0-1.27-.57-1.27-1.27Zm27.26,0v-11.69c0-.7.57-1.27,1.27-1.27h11.8c.7,0,1.27.57,1.27,1.27v11.69c0,.7-.57,1.27-1.27,1.27h-11.8c-.7,0-1.27-.57-1.27-1.27Z"/>
    <path class="cls-1" d="m289.91,105.06c-6.89-4.72-17.3-15.11-27.02-27.32,12.64-17.23,21.98-45.58,26.78-62.51.09-.32.18-.64.27-.96C291.94,7.1,286.56,0,279.12,0h-51.79C219.89,0,214.52,7.1,216.51,14.27c.09.32.18.64.27.96,0,.04.03.08.03.13,4.79,16.89,14.08,45.14,26.68,62.39-9.69,12.15-20.07,22.49-26.93,27.2-3.44,2.35-4.51,6.96-2.12,10.41,2.32,3.36,6.93,4.19,10.27,1.85,6.78-4.76,17.13-15.61,28.46-28.16,11.38,12.61,21.79,23.51,28.58,28.29,3.34,2.34,7.95,1.51,10.27-1.85,2.39-3.44,1.31-8.05-2.12-10.41ZM237.26,15.23h32.03c1.93,0,3.29,1.89,2.68,3.73-4.58,13.66-11.18,31.15-18.75,44.58-6.56-11.68-15.31-35.34-18.61-44.54-.66-1.84.7-3.77,2.66-3.77Z"/>
    <path class="cls-1" d="m202.23.06h-61.74c-4.08,0-7.65,3.07-7.9,7.14-.27,4.42,3.24,8.08,7.6,8.08h49.72c1.34,0,2.29,1.31,1.87,2.58-4.59,13.8-11.33,31.86-19.1,45.66-.02.03-.05.03-.07,0-4.39-7.82-8.45-16.99-11.98-25.98-1.89-4.81-8.07-6.12-11.72-2.47h0c-2.94,2.94-3.84,7.36-2.31,11.23,4.51,11.37,10,22.79,16.32,31.45.01.01.01.03,0,.05-9.69,12.14-20.05,22.48-26.9,27.18-3.44,2.35-4.51,6.96-2.12,10.41,2.32,3.36,6.93,4.19,10.27,1.85,6.77-4.76,17.1-15.58,28.43-28.12.02-.02.04-.02.06,0,4.21,4.65,8.28,9.08,12.08,13.04,2.65,2.77,7.09,3.15,9.97.63,3.11-2.71,3.25-7.41.43-10.33-4.16-4.32-8.54-9.31-12.79-14.65-.01-.01-.01-.03,0-.05,12.64-17.23,21.97-45.57,26.76-62.49.47-1.64.89-3.22,1.27-4.7,1.37-5.33-2.64-10.53-8.15-10.53Z"/>
  </g>
</svg>