<svg xmlns="http://www.w3.org/2000/svg" viewBox="0 0 130 130"><title>Futami Logo Icon</title><path d="M12.12 102.63c-8.57-13.52-5.94-32.14 3.06-49.19.2-.37.76-.16.67.25C13.06 65.78 13.46 77.94 20.4 88c16.02 23.16 53.78 21.57 74.55 6.25 0 0 17.87-11.17 25.74-32.43 0 0 2.85-7.46 2.96-15.26.04-2.91-.34-5.7-.34-5.7a30.5 30.5 0 0 0-.43-2.46c-.29-1.36-.61-2.37-.91-3.31-.33-1.05-.69-2.04-.78-2.28l-.21-.55c-.01-.02-.02-.04-.02-.06 0-.04.01-.06.05-.08.02 0 .03.01.05.03C109.79 12.92 88.91 0 65 0 29.1 0 0 29.1 0 65c0 14.94 5.05 28.68 13.52 39.66-.48-.66-.95-1.33-1.4-2.03M85.43 89.8c-1.19-.42-1.37-2.64-1.16-6.59a1.22 1.22 0 0 0-2-1c-1.01.84-2.06 1.65-3.16 2.42-15.65 10.96-34.82 10.57-42.82-.87-8.01-11.43-1.81-29.58 13.83-40.54 11.82-8.28 25.66-10.08 35.17-5.53 2.34 1.12 4.43 2.63 6.15 4.52 8.83 8.89 8.11 21.87 8.03 22.93-.41 5.74-2.39 9.85-3.69 12.49-2.43 4.92-7.76 13.08-10.34 12.16zM18.84 51.83c.66-2.79 1.41-4.77 2-6.15a35.2 35.2 0 0 1 3.51-6.31c2.08-2.97 4.05-4.74 7.45-7.77.56-.49 3.64-3.36 6.93-5.6 9.29-6.33 19.24-10.65 29-12.97 8.15-1.92 17.01-2.63 25.47-1.38 5.55.84 13.49 3.03 19.65 9.42 5.29 5.5 7.04 11.77 7.67 14.11 1.55 5.86 1.09 10.62.79 13.44-.75 7.13-3.13 12.2-5.04 16.17-1.31 2.73-5.89 11.75-15.67 20.4-3.02 2.68-8.47 7.02-9.19 6.34a.2.2 0 0 1-.05-.07c-.61-1.6 15.02-14.6 18.16-33.22 1.27-7.55-.1-12.57-1.21-15.41 0 0-2.01-5.19-6.21-9.39-11-11.02-30.06-8.29-32.12-7.97-8.11 1.55-16.47 4.96-24.25 10.25-15.66 10.66-27 33.69-23.18 49.85.12.52-.58.78-.82.3-1.05-2.06-1.39-3.1-2.39-5.16-2.21-4.54-3.35-16.82-.49-28.89z"/><path d="M57.36 53.58c-7.82 5.48-10.92 14.55-6.92 20.27s13.59 5.91 21.41.43 10.92-14.55 6.92-20.27-13.59-5.91-21.41-.43m-43.55 51.46l1.24 1.56c-.43-.5-.84-1.03-1.24-1.56m107.62-72.29l1.02 2.19c8.89 21.38-3.19 50.87-29.68 69.4-27.54 19.27-61.5 21.01-77.62 2.35 11.92 14.24 29.83 23.3 49.85 23.3 35.9 0 65-29.1 65-65a64.7 64.7 0 0 0-8.57-32.25z"/></svg>