<svg xmlns="http://www.w3.org/2000/svg" width="32" height="32" viewBox="0 0 24 24"><path fill="none" stroke="currentColor" stroke-linecap="round" stroke-width="1.5" d="M10.478 21.125a9.3 9.3 0 0 0 3.037.002m-3.038-.002A9.25 9.25 0 0 1 2.75 12a9.25 9.25 0 1 1 10.765 9.127m-3.038-.002V16.12H8.58a.6.6 0 0 1-.6-.6v-1.838a.6.6 0 0 1 .6-.6h1.897V9.95a3 3 0 0 1 3-3h1.81a1 1 0 0 1 1 1v1.04a1 1 0 0 1-1 1h-.772a1 1 0 0 0-1 1v2.092h2.297a.6.6 0 0 1 .592.698l-.25 1.504a1 1 0 0 1-.986.836h-1.653v5.007"/></svg>