<?xml version="1.0" encoding="utf-8"?>
<!-- Generator: Adobe Illustrator 27.7.0, SVG Export Plug-In . SVG Version: 6.00 Build 0)  -->
<svg version="1.1" id="Layer_1" xmlns="http://www.w3.org/2000/svg" x="0px" y="0px"
	 viewBox="0 0 209.9 162.6" style="enable-background:new 0 0 209.9 162.6;" xml:space="preserve">
<path d="M132.9,66.2c0.5,22.6-26.7,47.3-47.1,52.5c-21.1-6.5-46.3-28.5-46.6-52.5c-1.5-24.8,33.2-38.5,46.6-16.1
	C99.7,28,134.1,41.2,132.9,66.2z"/>
<path d="M174.5,54.8c2,15.8-22.1,23.5-23.7,12.7c0,0,0-25.7,0-25.7C152.4,30.8,176.5,39,174.5,54.8z"/>
<path d="M209.8,48.6L209.8,48.6c-0.6-7.8-2.9-15.5-6.9-22.3l0,0C180.3-6,149.1,2,99.2,0C53.1,0.3,0.5-5.8-0.2,51.5l0,0
	c-0.7,46.2,6.5,85.8,47.9,104.6c22.3,9.1,53.1,8.7,74.9-0.6c13.4-6.1,24.1-16,32-27.9c4.3-6.8,7.5-13.6,9.5-20.5
	c17-1.4,32.8-12,40.1-27.3l0,0c0.5-1,1-2.1,1.4-3.1l0,0C209.5,68,209.6,57.9,209.8,48.6z M192.9,57.1c0.1,22.8-21.3,36.3-42.1,33.6
	c-6.8,33.2-25.5,56.6-69.3,54.8c-52.6,0.7-66.6-43.1-64.6-93.7l0,0c0.6-44.7,43.9-32,82.3-34.8C150.4,19.2,191.6,8.5,192.9,57.1z"/>
<path d="M132.9,66.2c0.5,22.6-26.7,47.3-47.1,52.5c-21.1-6.5-46.3-28.5-46.6-52.5c-1.5-24.8,33.2-38.5,46.6-16.1
	C99.7,28,134.1,41.2,132.9,66.2z"/>
<path d="M174.5,54.8c2,15.8-22.1,23.5-23.7,12.7c0,0,0-25.7,0-25.7C152.4,30.8,176.5,39,174.5,54.8z"/>
<path d="M209.8,48.6L209.8,48.6c-0.6-7.8-2.9-15.5-6.9-22.3l0,0c-9-15.5-26.1-22.7-43.6-24.4c-18.1-2.4-94-3.1-119.9,0.4
	C15.2,4.4-1.3,28-0.2,51.5c-0.7,45.7,6.5,86,47.8,104.6c22.3,9.1,53.1,8.7,74.9-0.6c13.4-6.1,24.1-16,32-27.9
	c4.3-6.8,7.5-13.6,9.5-20.5c17-1.4,32.8-12,40.1-27.3l0,0c0.5-1,1-2.1,1.4-3.1l0,0C209.4,68,209.4,57.9,209.8,48.6z M192.9,57.1
	c0.1,22.8-21.3,36.3-42.1,33.6c-6.8,33.2-25.5,56.6-69.3,54.8c-52.6,0.7-66.6-43.1-64.6-93.7l0,0c0.6-44.7,43.9-32,82.3-34.8
	C150.4,19.2,191.6,8.5,192.9,57.1z"/>
<path d="M132.9,66.2c0.5,22.6-26.7,47.3-47.1,52.5c-21.1-6.5-46.3-28.5-46.6-52.5c-1.5-24.8,33.2-38.5,46.6-16.1
	C99.7,28,134.1,41.2,132.9,66.2z"/>
<path d="M174.5,54.8c2,15.8-22.1,23.5-23.7,12.7c0,0,0-25.7,0-25.7C152.4,30.8,176.5,39,174.5,54.8z"/>
<path d="M209.8,48.6L209.8,48.6c-0.6-7.8-2.9-15.5-6.9-22.3l0,0C180.3-6,149.1,2,99.2,0C53.1,0.3,0.5-5.8-0.2,51.5l0,0
	c-0.7,46.2,6.5,85.8,47.9,104.6c22.3,9.1,53.1,8.7,74.9-0.6c13.3-6.1,24.1-15.8,31.8-27.7c0-0.1,0.1-0.2,0.2-0.2
	c4.3-6.8,7.5-13.6,9.5-20.5l0,0c17-1.4,32.8-12,40.1-27.3l0,0c0.5-1,1-2.1,1.4-3.1l0,0C209.5,68,209.4,57.9,209.8,48.6z M192.9,57.1
	c0.1,22.8-21.3,36.3-42.1,33.6c-6.8,33.2-25.5,56.6-69.3,54.8c-52.6,0.7-66.6-43.1-64.6-93.7l0,0c0.6-44.7,43.9-32,82.3-34.8
	C150.4,19.2,191.6,8.5,192.9,57.1z"/>
<path d="M132.9,66.2c0.5,22.6-26.7,47.3-47.1,52.5c-21.1-6.5-46.3-28.5-46.6-52.5c-1.5-24.8,33.2-38.5,46.6-16.1
	C99.7,28,134.1,41.2,132.9,66.2z"/>
<path d="M174.5,54.8c2,15.8-22.1,23.5-23.7,12.7c0,0,0-25.7,0-25.7C152.4,30.8,176.5,39,174.5,54.8z"/>
<path d="M174.5,54.8c2,15.8-22.1,23.5-23.7,12.7c0,0,0-25.7,0-25.7C152.4,30.8,176.5,39,174.5,54.8z"/>
<path d="M132.9,66.2c0.5,22.6-26.7,47.3-47.1,52.5c-21.1-6.5-46.3-28.5-46.6-52.5c-1.5-24.8,33.2-38.5,46.6-16.1
	C99.7,28,134.1,41.2,132.9,66.2z"/>
</svg>
