<svg xmlns="http://www.w3.org/2000/svg" width="32" height="32" viewBox="0 0 24 24"><g fill="none" stroke="currentColor" stroke-linecap="round" stroke-linejoin="round" stroke-width="1.5" color="currentColor"><path d="M3 15c0-2.809 0-4.213.674-5.222a4 4 0 0 1 1.104-1.104C5.787 8 7.19 8 10 8h4c2.809 0 4.213 0 5.222.674a4 4 0 0 1 1.104 1.104C21 10.787 21 12.19 21 15s0 4.213-.674 5.222a4 4 0 0 1-1.104 1.104C18.213 22 16.81 22 14 22h-4c-2.809 0-4.213 0-5.222-.674a4 4 0 0 1-1.104-1.104C3 19.213 3 17.81 3 15"/><path d="M12.5 16.5a1.5 1.5 0 1 1-3 0a1.5 1.5 0 0 1 3 0m0 0v-5s.4 1.733 2 2M19 8c-.018-1.24-.11-1.943-.582-2.414C17.832 5 16.888 5 15.002 5H8.998c-1.887 0-2.83 0-3.416.586C5.11 6.057 5.018 6.76 5 8m12-3c0-.932 0-1.398-.152-1.765a2 2 0 0 0-1.083-1.083C15.398 2 14.932 2 14 2h-4c-.932 0-1.398 0-1.765.152a2 2 0 0 0-1.083 1.083C7 3.602 7 4.068 7 5"/></g></svg>