<?xml version="1.0" encoding="UTF-8"?>
<svg id="Layer_2" data-name="Layer 2" xmlns="http://www.w3.org/2000/svg" viewBox="0 0 205.57 217.02">
  <defs>
    <style>
      .cls-1 {
        fill: currentColor;
      }
    </style>
  </defs>
  <g id="Layer_1-2" data-name="Layer 1">
    <path class="cls-1" d="m102.55,145.72c-2.46,2.79-6.24,5.45-9.89,7.26,1.61,5.78,5.38,14.68,9.9,14.68.03,0,.07,0,.1,0,4.88-.14,8.56-9.1,10.09-14.19-3.89-1.74-7.8-4.42-10.2-7.75Z"/>
    <path class="cls-1" d="m92.6,201.57c-.53,1.12-1.16,2.19-1.87,3.17-7.64,10.64-24.11,12.47-29.79,12.27-7.47-.25-19.93-5.6-22.96-16.31-.22-.8-.39-1.64-.51-2.56-.83-6.71,1.78-14.82,6.36-19.73,1.74-1.86,4.52-4.04,7.98-4.04.15,0,.31.01.46.02,3.04.17,5.28,1.04,6.65,2.6,1.78,2.04,1.6,4.74,1.6,4.75-.11,1.21.66,2.32,1.84,2.64,1.18.32,2.41-.26,2.92-1.37.03-.07,3.24-6.88,8.24-6.33,4.51.49,4.67,9.3,4.67,9.38,0,1.14.78,2.14,1.89,2.42,1.11.29,2.27-.23,2.81-1.23,1.41-2.62,4.78-1.08,5.44-.74,3.7,1.88,7.9,7.44,4.27,15.06Z"/>
    <g>
      <path class="cls-1" d="m78.25,115.91c-4.99,9.91-15.03,15.54-24.35,12.92-5.19-1.46-9.41-5.26-11.88-10.7-1.5-3.28-2.26-6.92-2.26-10.67,0-2.62.37-5.3,1.12-7.94,3.16-11.24,12.33-18.85,21.74-18.85,1.56,0,3.12.21,4.66.64,1.81.51,3.48,1.3,4.99,2.33-.26-.03-.52-.05-.79-.05-6.01,0-10.89,8.12-10.89,18.13s4.88,18.13,10.89,18.13c2.56,0,4.92-1.47,6.77-3.94Z"/>
      <path class="cls-1" d="m150.63,127.59c-5.17,1.46-10.74.42-15.67-2.92-3.14-2.12-5.79-5.01-7.77-8.42,1.82,2.26,4.07,3.6,6.52,3.6,6.01,0,10.89-8.12,10.89-18.13s-4.88-18.13-10.89-18.13c-1.63,0-3.18.6-4.57,1.68,2.21-2.39,4.97-4.16,8.17-5.06,5.17-1.46,10.74-.42,15.67,2.92,5.07,3.42,8.85,8.84,10.65,15.24,3.67,13.06-2.16,26.17-13,29.22Z"/>
      <path class="cls-1" d="m154.99,64.53c12.17.25,25.19-11,31-23.49,5.81-12.49,5.7-42.26-12.94-41-18.64,1.26-14.74,23.51-17.68,39.08-2.94,15.57-13.66,16.09-13.66,16.09,0,0-38.15-13.92-77.93,0,0,0-10.73-.51-13.66-16.09C47.19,23.54,51.12,1.34,32.5.06,13.88-1.22,13.78,28.53,19.58,41.04s18.81,23.74,31,23.49c0,0-81.36,103-37.7,85.91,0,0-5.78,13.5-7.79,23.47-.82,3.96.5,8.07,3.49,10.8,5.35,4.83,15.29,12.46,23.88,13.6-.85-8.11,2.21-17.42,7.72-23.31,3.65-3.91,7.94-5.85,12.37-5.61,4.48.25,7.91,1.72,10.19,4.38.59.68,1.06,1.4,1.43,2.12,2.23-2.41,5.54-4.66,9.89-4.19,5.17.57,7.62,5.16,8.59,9.54,2.33-.84,5.15-.61,7.94.81,6.58,3.34,11.1,12.07,6.53,21.68h0c-.39.82-.82,1.62-1.29,2.38l15.08-.46c-.92-1.27-1.73-2.63-2.41-4.06-4.57-9.59-.05-18.32,6.52-21.65,2.79-1.42,5.61-1.66,7.93-.83.98-4.38,3.42-8.97,8.59-9.54,4.35-.49,7.66,1.77,9.89,4.18.37-.72.84-1.44,1.43-2.12,2.29-2.65,5.71-4.13,10.19-4.38,4.76-.26,9.45,2.07,13.22,6.56,5.5,6.56,8.14,16.51,6.55,24.49,8.57-1.17,18.77-8.77,24.14-13.59,3-2.72,4.34-6.83,3.53-10.8-2-10-7.79-23.47-7.79-23.47,43.66,17.11-37.7-85.91-37.7-85.91Zm-30.09-2.92c8.3-1,17.89,7.2,18.95,8.13,1.04.92,1.14,2.5.23,3.53-.5.56-1.19.85-1.88.85-.59,0-1.18-.21-1.65-.62-2.44-2.14-9.89-7.55-15.05-6.93-1.38.16-2.62-.81-2.78-2.18-.17-1.37.81-2.62,2.18-2.78Zm-17.29,15.33c.15-1.38,1.38-2.37,2.75-2.21,1.37.15,2.35,1.37,2.22,2.73-.01.11-.26,3.8,2.61,9.43.62,1.23.13,2.73-1.1,3.36-.36.18-.75.27-1.13.27-.91,0-1.79-.5-2.23-1.37-3.57-7.02-3.18-11.7-3.12-12.21Zm-7.42-.28c0-1.38,1.12-2.5,2.5-2.5s2.5,1.12,2.5,2.5v11.93c0,1.38-1.12,2.5-2.5,2.5s-2.5-1.12-2.5-2.5v-11.93Zm-9.98,10.23c2.9-5.7,2.62-9.4,2.61-9.43-.12-1.37.88-2.59,2.25-2.72,1.36-.14,2.57.83,2.72,2.2.06.51.45,5.19-3.12,12.21-.44.87-1.32,1.37-2.23,1.37-.38,0-.77-.09-1.13-.27-1.23-.63-1.72-2.13-1.1-3.36Zm-33.28-15.69c1.07-.93,10.67-9.13,18.95-8.13,1.37.16,2.35,1.41,2.18,2.78-.16,1.37-1.41,2.34-2.78,2.18-5.18-.62-12.62,4.79-15.05,6.93-.47.41-1.06.62-1.65.62-.69,0-1.38-.29-1.88-.85-.91-1.03-.81-2.61.23-3.53Zm-33.01,99.21c-.6,0-1.2-.13-1.77-.41-1.98-.98-2.79-3.38-1.82-5.36l4.85-9.83c.98-1.98,3.38-2.8,5.36-1.82,1.98.98,2.79,3.38,1.82,5.36l-4.85,9.83c-.7,1.41-2.12,2.23-3.59,2.23Zm19.66-10.06l-4.85,9.83c-.7,1.41-2.12,2.23-3.59,2.23-.6,0-1.2-.13-1.77-.41-1.98-.98-2.79-3.38-1.82-5.36l4.85-9.83c.98-1.98,3.38-2.8,5.36-1.82,1.98.98,2.79,3.38,1.82,5.36Zm14.95-25.88c-1.99,0-4-.27-5.98-.83-6.63-1.87-11.99-6.64-15.08-13.44-3.03-6.65-3.53-14.48-1.4-22.04,4.43-15.75,19.04-25.46,32.57-21.66,13.52,3.81,20.91,19.73,16.48,35.48-3.79,13.44-14.98,22.49-26.59,22.49Zm75.89,9.95c-.48.1-.99.14-1.5.14-.7,0-1.42-.09-2.14-.23-.9,4.15-3.26,11.1-9.07,11.32h-.36c-1.13,0-2.45-.18-3.87-.53-1.63,5.48-6.15,17.29-14.67,17.54h-.26c-8.47,0-12.93-12.14-14.56-17.84-1.07.3-2.05.47-2.88.48h-.09c-5.1,0-8.13-6.12-9.56-10.1-1.68.62-3.02.73-3.74.73-.25,0-.42,0-.51-.02-1.37-.13-2.38-1.36-2.24-2.73.13-1.36,1.33-2.37,2.68-2.25.15,0,1.71.03,3.8-1.29.01,0,.02-.01.02-.01.93-.59,1.96-1.44,3.02-2.68.9-1.05,2.48-1.18,3.53-.28,1.05.9,1.17,2.47.28,3.52-.82.96-1.64,1.76-2.44,2.42,1.27,3.91,3.48,7.69,5.17,7.69h.01c.96-.01,2.15-.33,3.44-.86.18-.11.39-.19.61-.25,3.46-1.53,7.47-4.35,9.62-6.62-4.88-1.31-8.28-4.79-8.28-8.98,0-.4.03-.79.09-1.17-.25-.08-.5-.16-.75-.25-4.52-1.72-7.4-4.31-7.4-7.2,0-5.18,9.25-9.38,20.66-9.38s20.66,4.2,20.66,9.38c0,3.05-3.2,5.76-8.15,7.47.06.38.09.76.09,1.15,0,4.41-3.77,8.04-9.07,9.16,2.01,2.87,5.98,5.42,9.66,6.81.03,0,.05,0,.08.01.21.05.41.13.6.23,1.71.58,3.32.89,4.62.85,2.2-.08,3.8-4.52,4.48-7.94-1.8-.84-3.22-1.71-3.73-2.04-1.16-.75-1.49-2.29-.75-3.45.75-1.16,2.3-1.5,3.46-.75,1.21.78,2.91,1.67,4.55,2.3.01,0,.02.01.03.01,1.5.58,2.94.93,3.87.74,1.36-.27,2.67.6,2.95,1.96.27,1.35-.61,2.67-1.96,2.94Zm17.56-12.03c-1.98.56-4,.84-6.03.84-4.72,0-9.47-1.51-13.79-4.43-6.04-4.08-10.53-10.49-12.65-18.02-4.42-15.71,2.96-31.58,16.45-35.37,1.98-.56,4.01-.83,6.04-.83,4.72,0,9.46,1.5,13.78,4.42,6.04,4.08,10.53,10.48,12.65,18.02,4.42,15.71-2.96,31.58-16.45,35.37Zm19.65,40.94c-.57.28-1.17.41-1.77.41-1.47,0-2.89-.82-3.59-2.23l-7.15-14.49c-.97-1.98-.16-4.38,1.82-5.36,1.98-.97,4.38-.16,5.36,1.82l7.15,14.49c.97,1.98.16,4.38-1.82,5.36Zm12.14-2.76c-.57.28-1.17.41-1.77.41-1.47,0-2.89-.82-3.59-2.23l-7.15-14.49c-.97-1.98-.16-4.38,1.82-5.36s4.38-.16,5.36,1.82l7.15,14.49c.97,1.98.16,4.38-1.82,5.36Z"/>
    </g>
    <path class="cls-1" d="m111.63,133.5v.09c0,2.55-2.84,4.75-6.55,5.36-.66.11-1.35.17-2.05.17-.88,0-1.74-.09-2.55-.26-3.46-.72-6.05-2.84-6.05-5.27v-.1c.09-2.96,3.99-5.43,8.6-5.43s8.52,2.48,8.6,5.44Z"/>
    <path class="cls-1" d="m167.79,197.88h0c-.05.24-.11.48-.17.68-3,10.71-15.47,16.06-22.95,16.31-7.62.28-21.56-2.44-28.76-10.94-1.16-1.36-2.13-2.87-2.9-4.49-3.63-7.6.56-13.17,4.27-15.05.37-.19,1.6-.76,2.85-.76.98,0,1.97.35,2.58,1.48.55,1.01,1.7,1.52,2.81,1.23,1.11-.28,1.89-1.28,1.89-2.42,0-.09.2-8.89,4.68-9.39,4.99-.55,8.18,6.28,8.21,6.34.5,1.11,1.72,1.68,2.9,1.38,1.17-.3,1.96-1.41,1.87-2.62,0-.03-.18-2.74,1.61-4.78,1.36-1.56,3.6-2.43,6.64-2.6,4.02-.23,7.17,2.47,9.11,4.78,4.64,5.53,6.9,14.3,5.36,20.85Z"/>
  </g>
</svg>