<?xml version="1.0" encoding="utf-8"?>
<!-- Generator: Adobe Illustrator 27.7.0, SVG Export Plug-In . SVG Version: 6.00 Build 0)  -->
<svg version="1.1" id="Layer_2_00000000901544188142371360000002855177634982258048_"
	 xmlns="http://www.w3.org/2000/svg" xmlns:xlink="http://www.w3.org/1999/xlink" x="0px" y="0px" viewBox="0 0 274.4 237.8"
	 style="enable-background:new 0 0 274.4 237.8;" xml:space="preserve">
<path d="M256.1,26.2v14c-1.7-0.3-3.4-0.5-5.2-0.5H23.5c-1.8,0-3.5,0.2-5.2,0.5v-14C18.3,11.7,30,0,44.5,0h185.4
	C244.4,0,256.1,11.7,256.1,26.2L256.1,26.2z"/>
<path d="M250.9,198c1.8,0,3.5-0.2,5.2-0.5v14c0,14.5-11.7,26.2-26.2,26.2H44.5c-14.5,0-26.2-11.7-26.2-26.2v-14
	c1.7,0.3,3.4,0.5,5.2,0.5H250.9z"/>
<path d="M248.5,52.6H25.9C11.6,52.6,0,64.2,0,78.5v80.8c0,14.3,11.6,25.9,25.9,25.9h222.6c14.3,0,25.9-11.6,25.9-25.9V78.5
	C274.4,64.2,262.8,52.6,248.5,52.6z M220.4,133.8H52.7c-8.3,0-14.9-6.7-14.9-14.9c0-8.3,6.7-14.9,14.9-14.9h167.7
	c8.3,0,14.9,6.7,14.9,14.9C235.4,127.2,228.7,133.8,220.4,133.8z"/>
</svg>
